<?xml version="1.0" standalone="no"?>
<!DOCTYPE svg PUBLIC "-//W3C//DTD SVG 20010904//EN"
 "http://www.w3.org/TR/2001/REC-SVG-20010904/DTD/svg10.dtd">
<svg version="1.0" xmlns="http://www.w3.org/2000/svg"
 width="1408.000000pt" height="768.000000pt" viewBox="0 0 1408.000000 768.000000"
 preserveAspectRatio="xMidYMid meet">

<g transform="translate(0.000000,768.000000) scale(0.100000,-0.100000)"
fill="#000000" stroke="none">
<path d="M3715 5471 c-6 -6 -185 -113 -400 -239 -417 -244 -738 -433 -900
-529 l-100 -59 -3 -806 -2 -806 57 -33 c32 -18 117 -67 188 -109 72 -43 252
-148 400 -235 149 -87 384 -225 522 -307 139 -81 255 -148 258 -148 3 0 5 410
5 910 l0 910 -370 0 -370 0 2 -182 3 -183 180 -3 180 -2 0 -400 c0 -220 -3
-400 -6 -400 -4 0 -58 31 -120 68 -112 68 -408 242 -501 296 l-48 27 0 597 0
597 73 44 c158 95 597 351 602 351 3 0 4 -62 1 -137 -3 -76 -2 -189 1 -250 l6
-113 184 0 183 0 0 575 c0 316 -4 575 -8 575 -4 0 -12 -4 -17 -9z"/>
<path d="M3970 3839 c0 -1559 1 -1641 18 -1634 9 3 100 55 202 115 102 61 415
244 695 408 l510 299 3 329 2 329 -105 74 c-58 41 -105 78 -105 82 0 4 47 42
105 85 l105 78 0 317 0 318 -27 19 c-24 16 -200 120 -813 480 -80 47 -192 113
-250 147 -150 90 -332 195 -336 195 -2 0 -4 -738 -4 -1641z m538 904 c81 -48
230 -136 332 -197 l185 -111 3 -136 3 -135 -100 -72 -99 -72 -241 0 -241 0 0
405 c0 223 2 405 6 405 3 0 71 -39 152 -87z m427 -1163 l95 -70 0 -134 0 -134
-62 -40 c-35 -21 -173 -103 -308 -182 -135 -78 -260 -151 -277 -162 l-33 -20
0 406 0 406 245 0 245 0 95 -70z"/>
<path d="M12153 4453 c-35 -7 -81 -56 -88 -95 -19 -103 98 -183 195 -133 60
31 80 127 38 180 -34 43 -84 60 -145 48z"/>
<path d="M7050 3840 l0 -560 105 0 105 0 0 50 0 50 53 -40 c174 -134 441 -66
533 135 42 91 58 195 46 285 -16 110 -46 181 -102 243 -60 66 -126 102 -211
117 -106 18 -208 -8 -288 -75 l-31 -27 0 191 0 191 -105 0 -105 0 0 -560z
m506 81 c104 -47 152 -196 104 -324 -33 -88 -101 -137 -190 -137 -93 0 -175
66 -201 164 -18 66 -6 159 28 214 54 88 168 124 259 83z"/>
<path d="M8977 4394 c-4 -4 -7 -256 -7 -561 l0 -553 110 0 110 0 -2 558 -3
557 -101 3 c-55 1 -103 0 -107 -4z"/>
<path d="M6260 4334 c-189 -50 -327 -186 -374 -370 -20 -78 -21 -222 -1 -297
54 -207 223 -359 433 -389 206 -30 404 52 510 212 58 87 82 170 82 286 l0 94
-285 0 -285 0 0 -85 0 -85 180 0 c137 0 180 -3 180 -12 -1 -30 -42 -100 -83
-141 -73 -73 -195 -97 -314 -62 -68 20 -144 89 -180 163 -25 51 -28 67 -28
162 0 92 3 112 26 160 56 119 134 171 264 178 101 5 165 -19 225 -84 l40 -44
120 0 c66 0 120 2 120 5 0 26 -59 123 -104 173 -94 101 -226 153 -386 151 -47
0 -110 -7 -140 -15z"/>
<path d="M8314 4115 c-197 -43 -324 -206 -324 -417 0 -240 154 -410 387 -425
150 -9 256 29 348 128 151 161 150 437 -1 599 -57 61 -145 106 -234 120 -80
12 -99 12 -176 -5z m214 -212 c124 -98 120 -327 -6 -414 -48 -33 -152 -38
-202 -11 -152 83 -152 358 0 440 64 34 155 27 208 -15z"/>
<path d="M9592 4119 c-108 -19 -209 -95 -231 -176 -29 -102 0 -192 77 -243 43
-28 85 -43 279 -99 102 -30 132 -80 78 -131 -20 -19 -39 -25 -88 -28 -78 -4
-124 17 -150 71 l-19 37 -105 0 -106 0 6 -34 c14 -88 76 -162 177 -210 61 -29
72 -31 180 -31 95 1 125 5 172 23 79 32 133 87 154 158 41 141 -29 245 -197
294 -38 11 -100 29 -137 40 -86 25 -122 51 -122 91 0 56 54 86 137 76 56 -6
95 -33 108 -75 l9 -32 104 0 104 0 -7 37 c-18 100 -95 188 -188 217 -68 20
-168 27 -235 15z"/>
<path d="M10470 4119 c-162 -26 -296 -156 -331 -321 -16 -75 -6 -212 20 -280
71 -185 301 -288 516 -232 218 56 344 279 294 516 -36 168 -166 290 -339 317
-73 12 -83 12 -160 0z m154 -189 c45 -17 104 -79 120 -127 34 -99 12 -224 -50
-286 -46 -46 -90 -60 -164 -55 -75 5 -123 40 -157 115 -22 47 -25 66 -22 137
4 71 8 89 34 131 49 80 155 117 239 85z"/>
<path d="M11454 4104 c-23 -8 -60 -31 -83 -50 l-41 -36 0 46 0 46 -105 0 -105
0 0 -415 0 -415 105 0 105 0 0 243 c0 281 8 325 65 376 56 49 163 55 223 13
62 -45 67 -69 70 -364 l3 -268 105 0 c81 0 106 3 110 14 3 8 2 146 -3 308 -8
284 -10 295 -34 348 -30 64 -74 112 -133 142 -54 29 -219 36 -282 12z"/>
<path d="M12080 3695 l0 -415 110 0 110 0 0 415 0 415 -110 0 -110 0 0 -415z"/>
</g>
</svg>
