<?xml version="1.0" standalone="no"?>
<!DOCTYPE svg PUBLIC "-//W3C//DTD SVG 20010904//EN"
 "http://www.w3.org/TR/2001/REC-SVG-20010904/DTD/svg10.dtd">
<svg version="1.0" xmlns="http://www.w3.org/2000/svg"
 width="1408.000000pt" height="768.000000pt" viewBox="0 0 1408.000000 768.000000"
 preserveAspectRatio="xMidYMid meet">

<g transform="translate(0.000000,768.000000) scale(0.100000,-0.100000)"
fill="#000000" stroke="none">
<path d="M6655 5758 c-121 -72 -332 -197 -470 -278 -137 -80 -410 -241 -605
-357 -195 -116 -381 -226 -412 -244 l-58 -34 3 -1010 2 -1009 100 -59 c55 -33
141 -83 190 -112 50 -29 304 -177 565 -330 261 -153 544 -318 629 -367 85 -50
170 -100 190 -112 20 -13 51 -31 69 -40 l32 -17 0 1141 0 1140 -453 0 c-250 0
-456 -2 -458 -4 -2 -2 -3 -106 -1 -230 l3 -226 224 0 225 0 0 -505 c0 -300 -4
-505 -9 -505 -9 0 -89 46 -621 360 l-215 127 -3 749 -2 749 47 29 c121 73 779
459 790 463 10 4 13 -59 13 -311 l0 -316 230 0 230 0 0 720 c0 396 -3 720 -7
719 -5 0 -107 -59 -228 -131z"/>
<path d="M7190 3840 c0 -1127 2 -2050 5 -2050 3 0 53 29 112 64 124 73 977
572 1386 809 l277 162 0 407 0 408 -78 58 c-43 31 -104 75 -135 97 -31 22 -57
43 -57 46 0 4 61 52 135 108 l135 101 0 398 0 397 -212 127 c-307 182 -597
354 -888 525 -512 301 -670 393 -676 393 -2 0 -4 -922 -4 -2050z m771 1067
c162 -96 350 -207 419 -249 l125 -75 3 -164 2 -164 -121 -92 -122 -93 -308 0
-309 0 0 505 c0 278 4 505 8 505 5 0 141 -78 303 -173z m347 -1329 c26 -18 82
-59 125 -91 l77 -58 0 -168 0 -168 -227 -133 c-126 -74 -309 -182 -408 -240
-99 -59 -190 -112 -202 -119 l-23 -12 0 511 0 510 306 0 305 0 47 -32z"/>
</g>
</svg>
